<mxfile host="Electron" modified="2024-04-15T14:25:14.544Z" agent="Mozilla/5.0 (Windows NT 10.0; Win64; x64) AppleWebKit/537.36 (KHTML, like Gecko) draw.io/23.1.5 Chrome/120.0.6099.109 Electron/28.1.0 Safari/537.36" etag="_xosucxMC8A2ODMuTiah" version="23.1.5" type="device">
  <diagram name="Pagina-1" id="2E39NDmfMYuv_2c8OxZy">
    <mxGraphModel dx="683" dy="398" grid="1" gridSize="10" guides="1" tooltips="1" connect="1" arrows="1" fold="1" page="1" pageScale="1" pageWidth="827" pageHeight="1169" math="0" shadow="0">
      <root>
        <mxCell id="0" />
        <mxCell id="1" parent="0" />
        <mxCell id="I8w5w0JpwTpMXvzJh7J8-1" value="Training data" style="text;html=1;align=right;verticalAlign=middle;whiteSpace=wrap;rounded=0;fontSize=20;fontFamily=Computer modern;" parent="1" vertex="1">
          <mxGeometry x="340" y="390" width="94" height="60" as="geometry" />
        </mxCell>
        <mxCell id="I8w5w0JpwTpMXvzJh7J8-2" value="f&lt;span style=&quot;font-style: normal;&quot;&gt;&lt;sub style=&quot;&quot;&gt;&lt;font style=&quot;font-size: 18px;&quot; face=&quot;jsMath-cmsy10&quot;&gt;A&lt;/font&gt;&lt;/sub&gt;&lt;/span&gt;" style="rounded=0;whiteSpace=wrap;html=1;fillColor=none;fontSize=24;fontFamily=Computer modern;fontStyle=2" parent="1" vertex="1">
          <mxGeometry x="460" y="402.5" width="80" height="35" as="geometry" />
        </mxCell>
        <mxCell id="I8w5w0JpwTpMXvzJh7J8-3" value="h" style="rounded=0;whiteSpace=wrap;html=1;fillColor=none;fontSize=24;fontFamily=Computer modern;fontStyle=2" parent="1" vertex="1">
          <mxGeometry x="570" y="402.5" width="80" height="35" as="geometry" />
        </mxCell>
        <mxCell id="I8w5w0JpwTpMXvzJh7J8-4" value="" style="endArrow=classic;html=1;rounded=0;exitX=1;exitY=0.5;exitDx=0;exitDy=0;entryX=0;entryY=0.5;entryDx=0;entryDy=0;" parent="1" source="I8w5w0JpwTpMXvzJh7J8-1" target="I8w5w0JpwTpMXvzJh7J8-2" edge="1">
          <mxGeometry width="50" height="50" relative="1" as="geometry">
            <mxPoint x="520" y="450" as="sourcePoint" />
            <mxPoint x="570" y="400" as="targetPoint" />
          </mxGeometry>
        </mxCell>
        <mxCell id="I8w5w0JpwTpMXvzJh7J8-5" value="" style="endArrow=classic;html=1;rounded=0;exitX=1;exitY=0.5;exitDx=0;exitDy=0;entryX=0;entryY=0.5;entryDx=0;entryDy=0;" parent="1" source="I8w5w0JpwTpMXvzJh7J8-2" target="I8w5w0JpwTpMXvzJh7J8-3" edge="1">
          <mxGeometry width="50" height="50" relative="1" as="geometry">
            <mxPoint x="424" y="430" as="sourcePoint" />
            <mxPoint x="470" y="430" as="targetPoint" />
          </mxGeometry>
        </mxCell>
        <mxCell id="I8w5w0JpwTpMXvzJh7J8-6" value="" style="endArrow=classic;html=1;rounded=0;entryX=0.5;entryY=0;entryDx=0;entryDy=0;exitX=0.5;exitY=1;exitDx=0;exitDy=0;" parent="1" source="I8w5w0JpwTpMXvzJh7J8-8" target="I8w5w0JpwTpMXvzJh7J8-3" edge="1">
          <mxGeometry width="50" height="50" relative="1" as="geometry">
            <mxPoint x="610" y="370" as="sourcePoint" />
            <mxPoint x="580" y="430" as="targetPoint" />
          </mxGeometry>
        </mxCell>
        <mxCell id="I8w5w0JpwTpMXvzJh7J8-8" value="Data" style="text;html=1;align=center;verticalAlign=middle;whiteSpace=wrap;rounded=0;fontSize=20;fontFamily=Computer modern;" parent="1" vertex="1">
          <mxGeometry x="560" y="340" width="100" height="30" as="geometry" />
        </mxCell>
        <mxCell id="I8w5w0JpwTpMXvzJh7J8-9" value="" style="endArrow=classic;html=1;rounded=0;exitX=0.5;exitY=1;exitDx=0;exitDy=0;entryX=0.5;entryY=0;entryDx=0;entryDy=0;" parent="1" source="I8w5w0JpwTpMXvzJh7J8-3" target="I8w5w0JpwTpMXvzJh7J8-10" edge="1">
          <mxGeometry width="50" height="50" relative="1" as="geometry">
            <mxPoint x="620" y="370" as="sourcePoint" />
            <mxPoint x="610" y="470" as="targetPoint" />
          </mxGeometry>
        </mxCell>
        <mxCell id="I8w5w0JpwTpMXvzJh7J8-10" value="Class" style="text;html=1;align=center;verticalAlign=middle;whiteSpace=wrap;rounded=0;fontSize=20;fontFamily=Computer modern;" parent="1" vertex="1">
          <mxGeometry x="560" y="470" width="100" height="30" as="geometry" />
        </mxCell>
        <mxCell id="I8w5w0JpwTpMXvzJh7J8-15" value="" style="endArrow=none;html=1;rounded=0;exitX=1;exitY=0.5;exitDx=0;exitDy=0;" parent="1" source="I8w5w0JpwTpMXvzJh7J8-16" edge="1">
          <mxGeometry width="50" height="50" relative="1" as="geometry">
            <mxPoint x="550" y="460" as="sourcePoint" />
            <mxPoint x="550" y="420" as="targetPoint" />
            <Array as="points">
              <mxPoint x="550" y="355" />
            </Array>
          </mxGeometry>
        </mxCell>
        <mxCell id="I8w5w0JpwTpMXvzJh7J8-16" value="Confidence" style="text;html=1;align=right;verticalAlign=middle;whiteSpace=wrap;rounded=0;fontSize=20;fontFamily=Computer modern;" parent="1" vertex="1">
          <mxGeometry x="426" y="340" width="114" height="30" as="geometry" />
        </mxCell>
        <mxCell id="I8w5w0JpwTpMXvzJh7J8-17" value="Accuracy" style="text;html=1;align=right;verticalAlign=middle;whiteSpace=wrap;rounded=0;fontSize=20;fontFamily=Computer modern;" parent="1" vertex="1">
          <mxGeometry x="434" y="460" width="114" height="30" as="geometry" />
        </mxCell>
        <mxCell id="I8w5w0JpwTpMXvzJh7J8-18" value="" style="endArrow=none;html=1;rounded=0;exitX=1;exitY=0.5;exitDx=0;exitDy=0;" parent="1" source="I8w5w0JpwTpMXvzJh7J8-17" edge="1">
          <mxGeometry width="50" height="50" relative="1" as="geometry">
            <mxPoint x="520" y="460" as="sourcePoint" />
            <mxPoint x="610" y="450" as="targetPoint" />
            <Array as="points">
              <mxPoint x="557" y="475" />
              <mxPoint x="557" y="450" />
            </Array>
          </mxGeometry>
        </mxCell>
      </root>
    </mxGraphModel>
  </diagram>
</mxfile>
